<?xml version="1.0" encoding="utf-8"?>
<!-- Generator: Adobe Illustrator 23.0.1, SVG Export Plug-In . SVG Version: 6.00 Build 0)  -->
<svg version="1.1" id="レイヤー_1" xmlns="http://www.w3.org/2000/svg" xmlns:xlink="http://www.w3.org/1999/xlink" x="0px"
	 y="0px" viewBox="0 0 340 240" style="enable-background:new 0 0 340 240;" xml:space="preserve">
<g>
	<path d="M294.4,77.8l-7.8-7.8c-4.7-4.7-12.4-4.7-17.2,0l-7.3,7.3l25,25l7.3-7.3C299.1,90.3,299.1,82.6,294.4,77.8z"/>
	<polygon points="193.4,146 193.4,171 218.4,171 280.2,109.2 255.2,84.2 	"/>
	<rect x="133.1" y="72.1" width="70.7" height="11.8"/>
	<rect x="133.1" y="115.3" width="70.7" height="11.8"/>
	<rect x="133.1" y="158.4" width="43.2" height="11.8"/>
	<path d="M239.1,203.7c0,1.8-1.5,3.3-3.3,3.3H101.1c-1.8,0-3.3-1.5-3.3-3.3V36.3c0-1.8,1.5-3.3,3.3-3.3h134.8c1.8,0,3.3,1.5,3.3,3.3
		v47.3l15.7-15.7V36.3c0-10.5-8.5-19-19-19H101.1c-10.5,0-19,8.5-19,19v167.5c0,10.5,8.5,19,19,19h134.8c10.5,0,19-8.5,19-19v-52.5
		l-15.7,15.7V203.7z"/>
</g>
</svg>
