<?xml version="1.0" encoding="utf-8"?>
<!-- Generator: Adobe Illustrator 23.0.1, SVG Export Plug-In . SVG Version: 6.00 Build 0)  -->
<svg version="1.1" id="レイヤー_1" xmlns="http://www.w3.org/2000/svg" xmlns:xlink="http://www.w3.org/1999/xlink" x="0px"
	 y="0px" viewBox="0 0 340 240" style="enable-background:new 0 0 340 240;" xml:space="preserve">
<g>
	<path d="M238.1,19.1H101.9L66.6,81.4v1.8v137.8h206.9V81.4L238.1,19.1z M230.3,32.4L255,76h-70.4l-3.2-43.6
		C181.4,32.4,230.3,32.4,230.3,32.4z M109.7,32.4h48.9L155.4,76H85L109.7,32.4z M260.1,207.6H79.9V86H155v15.8h30V86h75.1
		L260.1,207.6L260.1,207.6z"/>
	<path d="M143.7,125.1c0,3.9,3.2,7.1,7.1,7.1h38.4c3.9,0,7.1-3.2,7.1-7.1s-3.2-7.1-7.1-7.1h-38.4
		C146.9,118.1,143.7,121.2,143.7,125.1z"/>
</g>
</svg>
