<?xml version="1.0" encoding="utf-8"?>
<!-- Generator: Adobe Illustrator 23.0.1, SVG Export Plug-In . SVG Version: 6.00 Build 0)  -->
<svg version="1.1" id="レイヤー_1" xmlns="http://www.w3.org/2000/svg" xmlns:xlink="http://www.w3.org/1999/xlink" x="0px"
	 y="0px" viewBox="0 0 400 120" enable-background="new 0 0 400 120" xml:space="preserve">
<g>
	<polygon fill="#FFFFFF" points="44.427,39.45 4.412,115.298 44.427,115.298 84.444,115.298 	"/>
	<polygon fill="#FFFFFF" points="149.181,39.45 109.166,115.298 149.181,115.298 189.199,115.298 	"/>
	<polygon fill="#FFFFFF" points="252.99,39.45 212.976,115.298 252.99,115.298 293.007,115.298 	"/>
	<polygon fill="#FFFFFF" points="357.748,39.45 317.729,115.298 357.748,115.298 397.765,115.298 	"/>
	<polygon fill="#FFFFFF" points="96.334,115.298 56.314,39.45 96.334,39.45 136.351,39.45 	"/>
	<polygon fill="#FFFFFF" points="201.088,115.298 161.074,39.45 201.088,39.45 241.102,39.45 	"/>
	<polygon fill="#FFFFFF" points="304.896,115.298 264.882,39.45 304.896,39.45 344.913,39.45 	"/>
	<g>
		<path fill="#FFFFFF" d="M71.376,24.59V7.249h-6.937V4.929h16.685v2.321h-6.966V24.59H71.376z"/>
		<path fill="#FFFFFF" d="M110.487,24.59V4.929h9.336c1.874,0,3.304,0.175,4.278,0.533c0.975,0.35,1.756,0.975,2.34,1.867
			c0.585,0.897,0.876,1.881,0.876,2.967c0,1.396-0.484,2.572-1.45,3.526c-0.965,0.958-2.461,1.566-4.478,1.827
			c0.734,0.329,1.295,0.658,1.678,0.977c0.812,0.696,1.585,1.569,2.308,2.62l3.665,5.346h-3.502l-2.785-4.09
			c-0.814-1.183-1.486-2.09-2.011-2.707c-0.528-0.629-0.999-1.067-1.418-1.318c-0.414-0.246-0.837-0.425-1.271-0.52
			c-0.313-0.062-0.831-0.095-1.547-0.095h-3.23v8.73H110.487z M113.276,13.606h5.984c1.275,0,2.271-0.121,2.986-0.366
			c0.72-0.252,1.264-0.645,1.642-1.182c0.369-0.542,0.559-1.13,0.559-1.763c0-0.929-0.365-1.696-1.084-2.292
			c-0.724-0.605-1.865-0.902-3.427-0.902h-6.66V13.606z"/>
		<path fill="#FFFFFF" d="M158.622,24.59V4.929h2.783V24.59H158.622z"/>
		<path fill="#FFFFFF" d="M192.165,24.59V4.929h2.858l11.056,15.436V4.929h2.67V24.59h-2.858l-11.054-15.45v15.45H192.165z"/>
		<path fill="#FFFFFF" d="M240.37,24.59V4.929h2.786V24.59H240.37z"/>
		<path fill="#FFFFFF" d="M271.632,24.59l8.086-19.662h2.997l8.616,19.662h-3.172l-2.456-5.953h-8.801l-2.315,5.953H271.632z
			 M277.706,16.518h7.136l-2.199-5.446c-0.668-1.657-1.168-3.012-1.492-4.077c-0.269,1.261-0.646,2.515-1.136,3.755L277.706,16.518z
			"/>
		<path fill="#FFFFFF" d="M319.073,18.273l2.63-0.213c0.119,0.982,0.41,1.787,0.867,2.421c0.452,0.629,1.16,1.138,2.116,1.529
			c0.959,0.388,2.034,0.582,3.229,0.582c1.068,0,2.003-0.149,2.816-0.44c0.814-0.295,1.422-0.701,1.816-1.217
			c0.4-0.511,0.598-1.076,0.598-1.682c0-0.615-0.193-1.154-0.573-1.616c-0.383-0.461-1.021-0.85-1.9-1.162
			c-0.564-0.208-1.813-0.522-3.742-0.956c-1.936-0.436-3.29-0.845-4.068-1.228c-1.002-0.492-1.753-1.105-2.245-1.831
			c-0.492-0.731-0.74-1.547-0.74-2.449c0-0.994,0.303-1.919,0.906-2.785c0.603-0.862,1.484-1.515,2.641-1.962
			c1.159-0.447,2.446-0.672,3.866-0.672c1.558,0,2.933,0.236,4.126,0.703c1.192,0.471,2.108,1.162,2.747,2.073
			c0.645,0.913,0.987,1.947,1.035,3.099l-2.671,0.187c-0.141-1.243-0.628-2.182-1.454-2.815c-0.834-0.634-2.053-0.954-3.671-0.954
			c-1.684,0-2.911,0.289-3.683,0.869c-0.769,0.575-1.156,1.268-1.156,2.082c0,0.71,0.274,1.29,0.82,1.744
			c0.534,0.457,1.933,0.925,4.199,1.4c2.262,0.48,3.817,0.899,4.657,1.254c1.225,0.53,2.132,1.198,2.716,2.009
			c0.584,0.809,0.875,1.741,0.875,2.796c0,1.048-0.321,2.028-0.965,2.953c-0.639,0.928-1.56,1.649-2.764,2.16
			c-1.197,0.518-2.554,0.774-4.053,0.774c-1.908,0-3.504-0.263-4.79-0.783c-1.283-0.513-2.298-1.294-3.03-2.335
			C319.495,20.763,319.111,19.586,319.073,18.273z"/>
	</g>
</g>
</svg>
