<?xml version="1.0" encoding="utf-8"?>
<!-- Generator: Adobe Illustrator 23.0.1, SVG Export Plug-In . SVG Version: 6.00 Build 0)  -->
<svg version="1.1" id="レイヤー_1" xmlns="http://www.w3.org/2000/svg" xmlns:xlink="http://www.w3.org/1999/xlink" x="0px"
	 y="0px" viewBox="0 0 340 240" style="enable-background:new 0 0 340 240;" xml:space="preserve">
<g>
	<path d="M244.9,18.2l-28.7,28.7l2.7,2.8c-1.9,1.5-3.8,3-5.7,4.4c-3,2.2-5.9,3.9-7.9,4.7c-0.1,0.1-0.7,0.2-1.7,0.2
		c-1.7,0-4.5-0.4-8-0.9c-3.5-0.5-7.6-1.1-12.3-1.1c-4.1,0-8.6,0.5-13.3,1.8c-4.7-1.3-9.2-1.8-13.3-1.8c-4.7,0-8.8,0.6-12.3,1.1
		c-3.5,0.5-6.3,1-8,0.9c-1.1,0-1.6-0.1-1.7-0.2c-2.1-0.9-5.2-2.8-8.5-5.1c-1.7-1.2-3.4-2.6-5.1-3.9l2.7-2.8L95.1,18.2L22.8,93.1
		l28.7,28.7l8.4-8.7l18.5,16.2c0.5,3.1,1.5,6,2.6,8.8c0.7,1.8,1.5,3.5,2.4,5.1c-1.8,3-2.8,6.3-2.8,9.8c0,3.4,0.9,6.9,2.9,10
		c2.9,4.7,7.6,7.7,12.7,8.6c0,3.3,1,6.8,2.8,9.8c3.6,5.8,9.8,8.9,16.1,8.9c0.2,0,0.5,0,0.7,0c0.3,2.7,1.2,5.3,2.7,7.8
		c3.6,5.8,9.8,8.9,16.1,8.9c0.6,0,1.3-0.1,1.9-0.1c0.3,2.4,1.1,4.8,2.5,7c3.3,5.2,8.9,8.1,14.6,8.1c3.1,0,6.3-0.8,9.1-2.6l8.6-5.4
		c1.7,1.1,3.5,2.1,5.3,2.8c3.5,1.5,7.2,2.4,11.1,2.4c4.3,0,8.8-1.1,12.7-3.9c2.5-1.8,4.7-4.2,6.4-7.1c0.3,0,0.5,0.1,0.8,0.1
		c1.8,0,3.7-0.3,5.7-0.9c1.9-0.6,3.9-1.5,6-2.7c4.9-2.8,7.9-6.9,9.3-10.4c0.3-0.8,0.5-1.5,0.7-2.2c1.2-0.4,2.3-0.8,3.4-1.4
		c3.8-2.2,6.3-5.5,7.8-8.9c1.5-3.4,2.2-6.9,2.2-10.3c0-0.3,0-0.7-0.1-1c2.5-1,4.7-2.4,6.6-4.1c2-1.7,3.6-3.7,4.8-6
		c1.2-2.3,2-4.9,2-7.7c0-1.9-0.4-3.8-1.2-5.6c-0.3-0.6-0.6-1.1-1-1.7c1.5-2.6,2.9-5.5,4.2-8.7c0.9-2.4,1.7-4.9,2.1-7.6l19.3-16.9
		l9.1,9.4l28.7-28.7L244.9,18.2z M102.6,157.1l-0.3,0.2c-0.9,0.5-1.8,0.8-2.7,0.8c-1.7,0-3.4-0.9-4.4-2.4c-0.5-0.9-0.8-1.8-0.8-2.7
		c0-1.7,0.9-3.4,2.4-4.4l11.4-7.1c0.9-0.5,1.8-0.8,2.7-0.8c1.7,0,3.4,0.9,4.4,2.4l5.8-3.6l-5.8,3.6c0.5,0.9,0.8,1.8,0.8,2.7
		c0,1.2-0.4,2.4-1.2,3.3l-9.8,6.1C104.1,155.7,103.3,156.4,102.6,157.1z M117.7,175.6c-0.9,0.5-1.8,0.8-2.7,0.8
		c-1.7,0-3.4-0.9-4.4-2.4c-0.5-0.9-0.8-1.8-0.8-2.7c0-1.2,0.4-2.4,1.2-3.3l9.8-6.1c0.9-0.5,1.7-1.2,2.4-1.8l0.4-0.2
		c0.9-0.5,1.8-0.8,2.7-0.8c1.7,0,3.4,0.9,4.4,2.4c0.5,0.9,0.8,1.8,0.8,2.7c0,1.7-0.8,3.4-2.4,4.4L117.7,175.6z M148.6,185.2l-11.3,7
		c-0.9,0.5-1.8,0.8-2.7,0.8c-1.7,0-3.4-0.8-4.4-2.4c-0.5-0.9-0.8-1.8-0.8-2.7c0-1.7,0.9-3.4,2.4-4.4l11.4-7.1
		c0.9-0.5,1.8-0.8,2.7-0.8c1.7,0,3.4,0.8,4.4,2.4c0.5,0.9,0.8,1.8,0.8,2.7C151,182.6,150.2,184.2,148.6,185.2z M166.2,196.7
		c0.4,0.6,0.5,1.2,0.5,1.8c0,1.2-0.6,2.3-1.6,2.9l-9.7,6c-0.6,0.4-1.2,0.5-1.8,0.5c-1.2,0-2.3-0.6-2.9-1.6c-0.4-0.6-0.5-1.2-0.5-1.8
		c0-1.2,0.6-2.3,1.6-2.9l0,0l9.8-6.1c0.6-0.4,1.2-0.5,1.8-0.5C164.4,195.1,165.5,195.7,166.2,196.7l5.8-3.6L166.2,196.7z M241.9,154
		c-0.5,1-1.6,2.2-3.1,3.1c-1.4,0.9-3.1,1.4-4.7,1.4c-0.6,0-1.1,0.1-1.7,0.2c-1-0.2-2-0.5-2.9-0.9c-3-1.2-5.8-3.1-7.8-4.7
		c-1-0.8-1.8-1.5-2.3-2l-0.6-0.6l-0.1-0.1l0,0l0,0c-1.9-2.1-5.2-2.2-7.3-0.3c-2.1,1.9-2.2,5.2-0.3,7.3c0.2,0.2,2.8,3,7,5.9
		c2.1,1.5,4.7,2.9,7.6,4.1c0.7,0.3,1.4,0.5,2.1,0.7c0.2,0.5,0.5,0.9,0.8,1.3l0,0c0,0,0.3,0.9,0.3,2.1c0,1.9-0.7,4.4-1.7,5.8
		c-0.5,0.7-1,1.1-1.5,1.4c-0.5,0.3-1,0.4-1.9,0.5l-0.3,0c-0.2,0-0.4,0-0.6,0c0,0,0,0,0,0c-4.5,0-8.6-1.9-11.7-4
		c-1.5-1-2.8-2.1-3.6-2.9c-0.4-0.4-0.7-0.7-0.9-0.9l-0.2-0.2l0,0h0c-1.9-2.1-5.1-2.4-7.3-0.5c-2.2,1.9-2.4,5.1-0.5,7.3l0,0
		c0.2,0.2,2.6,3,6.7,5.8c2.7,1.9,6.3,3.8,10.5,4.9c0,0.1-0.1,0.2-0.1,0.4c-0.5,1.2-1.3,2.5-3.4,3.7c-1.4,0.8-2.5,1.2-3.2,1.5
		c-0.7,0.2-1.1,0.3-1.6,0.3c-0.7,0-1.7-0.1-3.3-0.5c-0.3-0.1-0.6-0.1-0.9-0.1c-0.1,0-0.2-0.1-0.3-0.2c-1.7-0.8-3.8-2.3-5.3-3.5
		c-0.8-0.6-1.4-1.2-1.9-1.6l-0.5-0.5l-0.1-0.1l0,0c-2.1-2-5.3-1.9-7.3,0.2c-2,2.1-1.9,5.3,0.2,7.3c0.1,0.1,2.3,2.2,5.3,4.4
		c0.5,0.4,1.1,0.8,1.7,1.2c-0.8,1.3-1.7,2.3-2.6,2.9c-1.4,0.9-2.9,1.4-4.8,1.4c-1.7,0-3.8-0.4-5.8-1.3c-0.7-0.3-1.3-0.7-2-1
		c0.4-1.4,0.6-2.9,0.6-4.5c0-3.1-0.9-6.3-2.6-9.1c-3-4.8-7.9-7.6-13.1-8c0-0.2,0-0.4,0-0.6c0-3.4-0.9-6.9-2.8-10v0
		c-3.6-5.8-9.8-9-16.1-8.9c-0.2,0-0.5,0-0.7,0.1c-0.3-2.7-1.2-5.3-2.7-7.8h0c-2.9-4.7-7.6-7.7-12.7-8.6c0-3.3-1-6.8-2.8-9.8l0,0
		c-3.6-5.8-9.8-9-16.1-8.9c-3.4,0-6.9,0.9-10,2.9l-6.6,4.1c-0.2-0.4-0.4-0.7-0.5-1.1c-1.2-2.8-1.9-5.5-2-7.4l-0.1-2.9l-22.2-19.4
		l42.1-43.6c2.2,1.8,4.4,3.5,6.6,5.1c3.7,2.7,7.5,5.1,11.3,6.7c2.4,1,4.8,1.3,7,1.3c3.5,0,6.7-0.6,10-1.1c0.2,0,0.4-0.1,0.7-0.1
		c-4.6,3.9-8.6,8.2-12,12.2c-2.8,3.3-5.3,6.5-7.2,9.1c-1.9,2.6-3.3,4.6-4,5.4c-3.1,4.1-4.5,9-4.5,13.8c0,4.5,1.2,9.3,4.3,13.3
		c1.6,2,3.6,3.7,6.1,4.9c2.5,1.2,5.3,1.8,8.3,1.8c3.7,0,7.5-0.9,11.6-2.6c12.8-5.4,25.9-9,35.8-11.2c4.9-1.1,9.1-1.9,12-2.3
		c0.5-0.1,1-0.2,1.4-0.2l43.3,37.3l0,0l0,0C242.3,153,242.2,153.4,241.9,154z M246.9,122.5l-0.2,2.9c-0.1,1.7-0.6,4-1.6,6.4
		c-0.5,1.3-1.1,2.6-1.7,3.8L205.6,103c-1.5-1.3-3.4-1.9-5.4-1.6c-0.3,0.1-28.1,3.6-55.8,15.2c-2.8,1.2-4.8,1.5-6.2,1.5
		c-1.1,0-1.8-0.2-2.3-0.4c-0.7-0.4-1.3-0.9-1.8-1.9c-0.5-1-0.8-2.4-0.8-3.9c0-2.2,0.7-4.3,1.6-5.4c1.1-1.4,2.4-3.3,4.2-5.7
		c2.7-3.6,6.3-8.3,10.7-12.9c4.3-4.6,9.4-9,14.6-12.1c7.1-4.2,13.2-5.2,19-5.3c3.6,0,7,0.4,10.3,0.9c3.3,0.5,6.5,1.1,10,1.1
		c2.2,0,4.5-0.2,7-1.2l0,0c3.8-1.6,7.5-4,11.3-6.7c2.2-1.6,4.5-3.4,6.6-5.1l41.4,42.9L246.9,122.5z"/>
</g>
</svg>
