<?xml version="1.0" encoding="utf-8"?>
<!-- Generator: Adobe Illustrator 23.0.1, SVG Export Plug-In . SVG Version: 6.00 Build 0)  -->
<svg version="1.1" id="レイヤー_1" xmlns="http://www.w3.org/2000/svg" xmlns:xlink="http://www.w3.org/1999/xlink" x="0px"
	 y="0px" viewBox="0 0 340 240" style="enable-background:new 0 0 340 240;" xml:space="preserve">
<g>
	<path d="M171.1,197.5c0.9-0.9,1.4-2.1,1.3-3.3l3.3-3.3l27-5.8c2.8-0.5,5.1-2.4,6.1-5c0,0,5.1-11.4,8.2-16.6l-8.6-8.6l-1.3-1.3
		l-8.6-8.6c-5.2,3.1-16.6,8.2-16.6,8.2c-2.6,1.1-4.4,3.4-4.9,6.1l-5.8,27l-3.3,3.3c-1.2,0-2.4,0.4-3.3,1.3c-1.8,1.8-1.8,4.7,0,6.5
		C166.4,199.3,169.3,199.3,171.1,197.5z M190.7,164.2c2-2,5.1-2,7.1,0c2,2,2,5.1,0,7.1c-2,2-5.1,2-7.1,0
		C188.8,169.4,188.8,166.2,190.7,164.2z"/>
	<path d="M234.4,145.9l-18.3-18.3c0,0-6.4,6.4-8.5,8.5c-2.1,2.1-4.8,1.4-4.8,1.4l-2.5,2.5l8.7,8.7l2.1,2.1l10.9,10.9l2.5-2.5
		c0,0-0.6-2.7,1.4-4.8C228,152.4,234.4,145.9,234.4,145.9z"/>
	<path d="M290.4,71.6c-8.5-8.5-17.7-7.7-27.3,1.9c-9.6,9.6-37.3,44.1-43.8,50.6l18.6,18.6c6.5-6.5,41-34.2,50.6-43.8
		C298.1,89.3,298.9,80.1,290.4,71.6z M282,86.6l-29,29c-0.7,0.7-1.9,0.7-2.6,0l-4-4c-0.7-0.7-0.7-1.8,0-2.6l29-29
		c0.7-0.7,1.9-0.7,2.6,0l4,4C282.7,84.7,282.7,85.9,282,86.6z"/>
	<rect x="121.2" y="97.6" width="80.4" height="9.1"/>
	<rect x="121.2" y="129.6" width="60.3" height="9.1"/>
	<rect x="121.2" y="161.6" width="42.9" height="9.1"/>
	<path d="M232.9,161.7l-3.3,2.8l-3.3,3.3V210H95.7V30h88.1v34.5c0,2.4,1,4.7,2.6,6.3c1.6,1.6,3.8,2.6,6.3,2.6h33.6V105
		c1.8-2.1,3.6-4.3,5.5-6.6c1.8-2.1,3.6-4.3,5.4-6.5V62l-42.9-42.9h-105c-2.5,0-4.6,2-4.6,4.6v192.7c0,2.5,2,4.6,4.6,4.6h143.4
		c2.5,0,4.6-2,4.6-4.6v-62.9l-5.2,5.2L232.9,161.7z M192.9,33.2L224,64.3h-31.1V33.2z"/>
</g>
</svg>
