<?xml version="1.0" encoding="utf-8"?>
<!-- Generator: Adobe Illustrator 23.0.1, SVG Export Plug-In . SVG Version: 6.00 Build 0)  -->
<svg version="1.1" id="レイヤー_1" xmlns="http://www.w3.org/2000/svg" xmlns:xlink="http://www.w3.org/1999/xlink" x="0px"
	 y="0px" viewBox="0 0 340 240" style="enable-background:new 0 0 340 240;" xml:space="preserve">
<path d="M179.2,96.6c0.6,0.2,1.1,0.3,1.7,0.3h0c1.2,0,2.4-0.4,3.4-1.3c2.1-1.8,3-4.7,1.5-14.1c-1.3-8.3-3.4-12.7-6.9-14.6
	c-0.8-0.4-1.6-0.7-2.4-0.8c0-15.5,5.3-29.8,14.6-39.3c7.9-8.1,18.3-12.4,30.1-12.4s22.2,4.3,30.1,12.4c9.3,9.5,14.6,23.8,14.6,39.3
	c-0.8,0.1-1.7,0.4-2.4,0.8c-3.5,1.9-5.6,6.2-6.9,14.6c-0.6,3.5-0.8,6.3-0.7,8.4c-2.7,1.5-7.6,3.3-15.7,4c-1.3-2.1-3.6-3.4-6-3.4
	h-4.7c-3.9,0-7.1,3.2-7.1,7.1s3.2,7.1,7.1,7.1h4.7c2.8,0,5.2-1.6,6.4-4.1c7.4-0.6,13.5-2.1,18.1-4.5c0.9,0.6,1.9,0.9,2.9,0.9
	c0.6,0,1.1-0.1,1.7-0.3c3.7-1.2,11.6-9.8,12.1-28.2c0.5-18.8-5.8-36.4-17.2-48.2C248.4,10.3,235.6,5,221.2,5
	c-14.4,0-27.2,5.3-36.9,15.3c-11.5,11.8-17.8,29.4-17.2,48.2C167.6,86.9,175.5,95.4,179.2,96.6z"/>
<g>
	<path d="M202.4,110.6v3.7c0,4.5-2.6,8.5-6.6,10.4l-12.4,5.1h8.7c1.7,0,3,1.3,3,3v34.7h90l-1.4-17.4c-1.2-6.6-5.5-12.1-11.6-14.9
		l-25.4-10.4c-4.1-1.9-6.7-5.9-6.7-10.4v-2l-0.7,0.2c-1.7,0.6-3.5,0.9-5.2,0.9h-4.7c-8.8,0-15.9-7.1-15.9-15.9
		c0-8.8,7.1-15.9,15.9-15.9h4.7c3.3,0,6.4,1,9.1,2.9l0.2,0.1l0.2,0c5.6-0.9,8.2-2.4,9.1-3.1l1.7-2.4c1.6-5.3,2.5-10.2,2.5-14.7
		c0-23.7-15-40.9-35.6-40.9c-20.7,0-35.6,17.2-35.6,40.9c0,19.6,15.9,41.1,16,41.2C202.1,107.2,202.4,108.9,202.4,110.6z"/>
	<path d="M158.7,150.1l-0.6,8.1l12.3-9.5h-11.4C158.9,149.2,158.8,149.6,158.7,150.1z"/>
	<polygon points="172.8,167.5 176.2,167.5 176.2,164.8 	"/>
</g>
<g>
	<path d="M55,132.8v102.8h137V132.8H55z M125.7,187.1c-0.5,0.5-1.3,0.7-2.2,0.7c-0.8,0-1.6-0.3-2.2-0.7l-53.5-41.4h111.3
		L125.7,187.1z M80.5,167.7l18.6,15.8l-31.2,30.7v-55.7L80.5,167.7z M108.3,191.4l4.4,3.7c2.9,2.5,6.7,3.8,10.8,3.8
		c4.1,0,7.9-1.4,10.8-3.8l4.4-3.7l31.9,31.4H76.4L108.3,191.4z M148,183.5l31.2-25v55.7L148,183.5z"/>
</g>
</svg>
