<?xml version="1.0" encoding="utf-8"?>
<!-- Generator: Adobe Illustrator 23.0.1, SVG Export Plug-In . SVG Version: 6.00 Build 0)  -->
<svg version="1.1" id="レイヤー_1" xmlns="http://www.w3.org/2000/svg" xmlns:xlink="http://www.w3.org/1999/xlink" x="0px"
	 y="0px" viewBox="0 0 340 240" style="enable-background:new 0 0 340 240;" xml:space="preserve">
<path d="M292.9,198.3L292.9,198.3l-14.1-75.7v0c-2-9.6-10.4-16.4-20.2-16.4H81.3c-9.8,0-18.2,6.9-20.2,16.4v0l-14.1,75.7v0
	c-0.3,1.2-0.4,2.5-0.4,3.8c0,4.3,1.5,8.5,4.2,11.9c3.6,4.4,8.9,6.9,14.6,6.9h52.1h104.7h52.2c5.7,0,11.1-2.6,14.6-6.9
	c2.8-3.4,4.2-7.6,4.2-11.9C293.3,200.9,293.2,199.6,292.9,198.3z M282.2,208.4c-1.9,2.3-4.7,3.7-7.7,3.7h-62.8
	c-5.6-3.4-11.4-5.7-15.1-7c-4.9-1.8-12.1-7.2-12.1-10.5v-8.7c2.8-3.1,5-9.6,6.3-16.8c3-1.1,4.7-2.8,6.9-10.3c2.3-8-3.5-7.7-3.5-7.7
	c4.6-15.2-1.5-29.5-11.6-28.5c-7-12.3-30.4,2.8-37.8,1.8c0,4.2,1.8,7.3,1.8,7.3c-2.6,4.8-1.5,14.5-0.8,19.4c-0.4,0-5.6,0-3.4,7.7
	c2.2,7.5,3.8,9.2,6.8,10.3c1.3,7.2,3.5,13.7,6.3,16.8v8.7c0,3.3-7.6,9-12.1,10.5c-3.7,1.3-9.6,3.6-15.3,7H65.5c-3,0-5.8-1.4-7.7-3.7
	c-1.5-1.8-2.3-4.1-2.3-6.3c0-0.7,0.1-1.4,0.2-2v0l14.1-75.7v-0.1c1.2-5.4,6-9.3,11.5-9.3h177.3c5.5,0,10.3,3.8,11.5,9.3l14.1,75.7v0
	c0.1,0.7,0.2,1.4,0.2,2C284.5,204.4,283.7,206.6,282.2,208.4z"/>
<g>
	<path d="M194.1,23.3c0,2.7,1.1,4.7,1.1,4.7c-1.7,3.1-1,9.4-0.6,12.5c-0.3,0-3.6,0-2.2,5c1.4,4.8,2.5,5.9,4.4,6.6
		c0.8,4.7,2.2,8.8,4.1,10.9c0,2.4,0,4.2,0,5.7l-0.1,0.5l6.2,3V77h6.4v-4.8l6.2-3l-0.1-0.5c0-1.4,0-3.2,0-5.7c1.8-2,3.2-6.2,4-10.9
		c1.9-0.7,3-1.8,4.4-6.6c1.5-5.1-2.2-5-2.2-5c3-9.8-0.9-19.1-7.5-18.4C214,14.3,198.9,24,194.1,23.3z"/>
	<path d="M214.4,90.8l-0.8-10.4h-6.4l-0.8,10.4l-10.5-16.1c-4.7,0-17.9,11.7-18.7,25.8h66.4c-0.8-14.1-13.9-25.8-18.7-25.8
		L214.4,90.8z"/>
</g>
<g>
	<path d="M111.9,23.3c0,2.7,1.1,4.7,1.1,4.7c-1.7,3.1-1,9.4-0.6,12.5c-0.3,0-3.6,0-2.2,5c1.4,4.8,2.5,5.9,4.4,6.6
		c0.8,4.7,2.2,8.8,4.1,10.9c0,2.4,0,4.2,0,5.7l-0.1,0.5l6.2,3V77h6.4v-4.8l6.2-3l-0.1-0.5c0-1.4,0-3.2,0-5.7c1.8-2,3.2-6.2,4-10.9
		c1.9-0.7,3-1.8,4.4-6.6c1.5-5.1-2.2-5-2.2-5c3-9.8-0.9-19.1-7.5-18.4C131.8,14.3,116.7,24,111.9,23.3z"/>
	<path d="M132.2,90.8l-0.8-10.4H125l-0.8,10.4l-10.5-16.1c-4.7,0-17.9,11.7-18.7,25.8h66.4c-0.8-14.1-13.9-25.8-18.7-25.8
		L132.2,90.8z"/>
</g>
</svg>
